<?xml version="1.0" encoding="UTF-8"?>
<svg id="Layer_1" xmlns="http://www.w3.org/2000/svg" version="1.1" viewBox="0 0 1344 768">
  <!-- Generator: Adobe Illustrator 29.8.4, SVG Export Plug-In . SVG Version: 2.1.1 Build 6)  -->
  <defs>
    <style>
      .st0 {
        fill: #00a651;
        stroke: #00a651;
      }
    </style>
  </defs>
  <path class="st0" d="M547.5,20h32l1.5,1.5v7l2,.5v1.5l1,5.5h4l.5,3h10.5v5l3,.5v7.5h3v7c3.53-.8,5.03-.13,4.5,2h6l1-1h20l2-2h44.5l1-14,3-1.5v-3.5h7v-3h5.5l.5-1.5c2.07-1.2,2.57-2.37,1.5-3.5,1.73.53,2.23-.3,1.5-2.5l1-1v-7.5h30.5c-.4,1.87.43,2.53,2.5,2v5.5l2.5,3.5h2.5c-1,2.47-.5,3.47,1.5,3l2.5,1,1.5,3c2.53-.67,3.37,0,2.5,2h4v11.5l1,1v21.5c2-.8,2.67.03,2,2.5l1.5,1.5,42,1,1.5,1.5,2,15.5c2-.8,2.67.03,2,2.5l1.5,1.5h23l1,1h12.5v14.5l1,3.5c1.8-.73,2.47-.23,2,1.5l1.5,1.5h16.5c-.8,3.33-.13,5.5,2,6.5v10.5c2-.8,2.67.03,2,2.5l1.5,1.5h12.5l1.5,3,1.5.5v10l1,1v15l1,1v62l-1,1v28l-2,8,1,2-1.5,1.5h-10.5c1.2,3,.03,4-3.5,3l-1.5,1.5-1,13.5c-2.2-.87-2.87.3-2,3.5l-1.5,1.5h-14.5v3l-4,.5v16l-1.5,1.5-25,1-4,2h-42.5l1,61.5c2.2.93,2.87,3.1,2,6.5,2.2-.87,2.87.3,2,3.5l1,3c-1.47.8-1.3,1.63.5,2.5h2l3.5.5v11l1,2.5c2.73-1.13,3.73-.3,3,2.5l2.5,3.5h4.5v8.5l1.5.5,3.5,1v3c2.53-1,3.53-.5,3,1.5l1,4.5c4-1.33,5.33,0,4,4h5l.5-3h10.5c-1-4.2-.33-6.03,2-5.5v-11l1-4.5h6v-5h-20v-46h19.5l.5-3h-6.5l-.5-.5v-27.5l3-1.5c-1.53-.8-1.37-1.63.5-2.5l2.5-1.5,1.5-2.5h25l1.5,1.5c-.67,2.53,0,3.37,2,2.5v3h3v-22h44v20.5l1.5,1.5,1.5-4h2l.5-3h26.5v3h3c-.67,2,0,2.67,2,2v3l2,.5v26.5c-3.6-1-5.93-.5-7,1.5l.5,2.5h19.5v46h-18.5l-1.5,1.5,1.5,3.5h2l3.5.5v27.5h-2c.67,2,0,2.67-2,2v3c-2.8-.67-3.97,0-3.5,2h-26.5l-1-7-4,.5v21.5h-34v22h-9c.8,2.47-.53,3.13-4,2v2.5l-2.5,4.5c-2-.6-2.5.57-1.5,3.5l-4,1.5v3h-8.5l-.5,3h-1.5l-1.5,1.5v13.5h-56.5l-1-2h-10l-1.5,1.5-1,34-2,2-1,17.5h-16v4l-3,.5v9l-2,1v8l-1,1v7.5c-2-.8-2.67.03-2,2.5l-1,1v10.5l-3,1.5-1,18.5h-2v3.5c-2.13-.53-2.8.97-2,4.5h-8.5l-.5,3h-4v17.5l1,2.5h4v3c2.53-1,3.53-.5,3,1.5l3,1.5c-.67,2,0,2.67,2,2v3h2.5l1.5,3c2.2-.73,2.87.27,2,3h2.5l3.5,1v21.5l-.5.5h-106.5v-59.5l-1.5-1.5c-4.2,1.27-5.7.27-4.5-3h-5v-6.5l-1.5-1.5h-18l-3-1-1.5,3.5v3.5h-4v3c-2.73-1.13-3.73-.3-3,2.5l-4,1.5v2h-3c1,2.47.5,3.47-1.5,3l-2.5,1-1,5.5,1,3v2c-.8,2.53.03,3.37,2.5,2.5l3.5,1v4h1.5l3,4h1.5v3c2.53-1,3.53-.5,3,1.5l2,3.5h5.5l.5.5v22.5h-107v-65.5l-2.5-3.5c-4.73.47-8.23.13-10.5-1v-8h-2.5c-2.13-1.27-2.63-3.93-1.5-8-1.8.73-2.47.23-2-1.5l-4-1.5-1-4h-7v-10.5c-2.13-1-2.8-3.17-2-6.5h-16c.67-2.8,0-3.97-2-3.5v-9c-2.13-3.8-2.8-9.13-2-16l-2-2v-8.5c-2,.87-2.67.03-2-2.5l-1.5-1.5h-14.5v-11.5l-2-11v-29l-1-1v-65l1-1,1-53,1-1v-6.5h18.5l.5-2.5,1-1v-36l2-7v-16.5h18.5l1.5-1.5v-16l1-1v-10l1-1v-18l1-1v-13l1-2.5h2l.5-4h14l5.5-7.5v-18l2-10,1-21,2.5-4.5h16l.5-2.5,1-2v-2l2-33.5,2-.5v-9l1-4.5h14.5l.5-1.5,3-1.5v-8.5l-1.5-.5-1.5-3h-6.5l-.5-3h-3.5l-3.5-4.5v-3.5h-2v-4c-2,.87-2.67.03-2-2.5l-1-2.5h-11v-6.5l-1.5-.5-1.5-1.5v-22l1-1v-8.5c2.47.8,3.13-.53,2-4h7.5l.5-3h4v-10.5l3-1.5v-4h9.5l.5-3h4v-5.5l2-.5v-5.5l2-.5v-2.5l1.5-1.5ZM714,40l-1,1h-2v4h-3c.67,2.67.33,3.67-1,3l-2,2v8h11l1,1c2.67-.67,3.67,0,3,2h12l1-1-1-3v-15h-6l-1-2h-11ZM551,42c.67,2.67,0,3.67-2,3,.67,2.67.33,4.33-1,5h-2v4l-4,2-2,4c-2-.67-2.67,0-2,2l-1-1c-2.67-.67-3.33.33-2,3h-3v31c2-.67,2.67,0,2,2l3,1h2c-.67,3.33.33,4.33,3,3v3h3c-.67,2,0,2.67,2,2l3,5c-.67,1.33,0,1.67,2,1v2h3v3h3v3l2,1h8v19h-17l-1,4,1,6-3,1v13l-1,1v10l-1,1v17h-18l-1,4h-2v21l-2,1v27l-2,1v6h-16l-1,3h-3l-1,21-2,3v22l-2,4v15h-19l-1,28-2,2v33h-19v14l-2,2v16l-1,1v46l-1,1,1,69,1,1,1,23,2,1h1l1,3h14l1,6v13h2v11l2,1,1,1v9l2,1h13l2,4v8l2-1,2,2v5h3c1.33.67,1.67,2.67,1,6l3,1c-.67,2.67.33,3.33,3,2l1,3v3l3,1v6h4l1,3h9v7l-1,2c-.67,2.67-.33,4.67,1,6-1.33.67-1.67,3-1,7l1,3-1,2v2l1,1v28h10l1,1,5-1,1,1c-.67-4,.33-5.33,3-4l2-6h17v3h3l1,3c2-.67,2.67.33,2,3l2,1h19v-6l-1-1v-2c-3.33.67-4.33-.33-3-3h-3v-3l-4-1v-3c-2.67.67-3.67.33-3-1-.67-2-1.33-2.33-2-1-2-.67-2.33-1.33-1-2l-3-2v-1c-.67-2-2.67-2.67-6-2v-18l3-1v-4h7l1-1v-2h4v-4h4v-2l4-2,1-4c-1.33-4,0-5.33,4-4l-1-1,2-4h1v-4h4l1-3c-.67-4,.33-5.33,3-4l1-8h14v10l-3,1c-.67,3.33-.33,5,1,5h27l3-1,1-2h16v-3h5l3-5h17c-1.33-4,0-5.33,4-4v-4h9l1-1v-3h6l1-4c2.67.67,4.33.33,5-1-.67-2.67.33-3.33,3-2v-2h3v-3l4-1v-2h2v-10h9l1-1c2,.67,2.67,0,2-2h7l1-1v-15l2-1v-20l2-2v-20l1-1v-19l1-1-1-111-1-1v-26l-1-1v-32l-1-2h-39l-1-1h-26l-1-4v-11l2-1-1-5h123l1-1h10l1-1h15l1-1c1.33.67,1.67.33,1-1l3-2,2-3c1.33.67,1.67,0,1-2h3v-4l3-1v-4c2,.67,2.67,0,2-2h3l1-3c2,.67,2.67,0,2-2h4c-1.33-2.67-.33-3.67,3-3l1-1,1-26,1-1v-83l-2-2v-11h-7v-3h-9l-2-2c1.33-1.33,1.33-2.33,0-3h-2v-8l-3-1c.67-4,.67-6,0-6h-17l-1-2h-20v-10l-2-1v-8l-3-2h-22l-1-1h-23v-14c-2,0-2.67-1.67-2-5h-16l-1-1h-100l-4,2h-25l-5-2c1.33-4,.33-5.33-3-4l-1-8h-1l-3-1-1-2v-4h-3c1.33-2.67.67-3.67-2-3l-2-4h-3v-10l-1-2h-28ZM879,330v21h-21l-1-3h-2v-4h-13v14l2,1c2.67-.67,4-.33,4,1v23l-18-1-2,2,1,5v11h19l1,2v22c-3.33-.67-5.33,0-6,2v13h13l1-6h22v20h17l1-1v-19h22v4h2v3h12v-16h-6v-22l2-2h19v-15l-1-1v-2h-20v-21l7-3c1.33-6,1-10-1-12l1-2h-11l-1,3h-1l-1,3h-23v-20h-18ZM775,426v24l1,1v52h12l2,2h41v-3h3l4-5c1.33.67,1.67-.33,1-3h2l1-2,5-3h2v-3c2.67.67,3.67,0,3-2l3-1h2v-14c-6-.67-10.67,1-14,5v2h-4c1.33,3.33.33,4.33-3,3l-2,5h-2l-2-1v-16l2-2h3c-1.33-2.67-.67-3.67,2-3l1-1v-10h-7c.67,2-.67,2.67-4,2v2h-3l-2,3h-20l-1-3h-3l-1-3-3-2-2-3-3-1c.67-2.67,0-3.67-2-3l-1-3c.67-2.67,0-3.67-2-3-2-.67-2.33-1.33-1-2l-2-3c.67-3.33-.33-4.33-3-3v-3h-3ZM720,611c1.33,4,0,5.33-4,4v4h-9l-3,4c-3.33-.67-4.33.33-3,3l-5,1h-4v3c-2.67-.67-3.67,0-3,2h-11l-3,5h-15l-1,2c-2.67-.67-4.33,0-5,2h-5c-.67,3.33.33,4.33,3,3v4h4c1.33.67,1.33,1.67,0,3l4,1,3,1v51h18v-5h3l1-4h17v3l3,2v2h3l1,3h20l1-4-1-2v-3h-4v-3h-3v-3h-4c.67-2.67.33-3.67-1-3l-3-4c-2,.67-2.67.33-2-1l-3-2v-3h-6v-21l-1-1,2-3h1l1-2h10v-3l3-1v-9l2-1,1-1v-11l3-2v-11h-5Z"/>
  <path class="st0" d="M561,60h8c-1.07,3.27.27,4.27,4,3v8h5c-1.6,4.73-.27,6.4,4,5v10l5,.5v15.5h-5v2.5l-1,3.5h-3v3h-3v4h-1.5c-1-2.13-3.17-2.8-6.5-2v-9h6c-1-2.47-.5-3.47,1.5-3l1.5-3,3-1.5v-6.5l-3-.5v-9.5h-4v-6h-5v-7h-6v-7Z"/>
  <path class="st0" d="M650.5,136c5.47-.73,9.3-.4,11.5,1v6.5l1.5.5,1.5,1.5v11l-1.5,1.5h-39l-1.5-3h-4v-6.5l-1.5-.5-1.5-4h3v-6.5l.5-.5h30l1-1Z"/>
  <path class="st0" d="M777,166h21v22h-21v-22Z"/>
  <path class="st0" d="M841,166h15v22h-17v-11l2-.5v-10.5Z"/>
  <path class="st0" d="M817,192h11.5l.5,3.5c1.67,1,2,3.33,1,7v2l-1,2v45l-1,5,3,7.5h4l.5,3h12l4.5-1c.53,2.07-.13,2.9-2,2.5v5l-1,2.5h-4l-.5,3h-12.5v-2c-2.47,1-3.47.5-3-1.5l-1.5-2.5-2,1-2.5-1-.5-2h-6.5v5h-6l-.5,3h-23.5c1.2-3,.03-4-3.5-3l-3-5c-4.07,1.2-5.23-.63-3.5-5.5l1-2.5h6l.5,3h25.5c-1.2-3.27.3-4.27,4.5-3l1.5-1.5v-67.5c2,.67,2.67,0,2-2Z"/>
  <path class="st0" d="M876.5,362h24l1.5,1.5c-.67,2.53,0,3.37,2,2.5v3h2c-.73,1.8-.23,2.47,1.5,2l1.5,3c1.8-.73,2.47-.23,2,1.5l4,1.5,1,2.5v25.5l-4,.5.5,1.5c-2.2-.73-3.03-.23-2.5,1.5l-3,1.5c.67,2,0,2.67-2,2v2.5l-4,3-.5,1.5h-25.5c.67-2,0-2.67-2-2v-3h-3v-2h-2c.73-1.8.23-2.47-1.5-2l-1-3c-2.2.73-3.03.23-2.5-1.5l-3-1.5v-25.5l3-.5v-1.5l3-1.5,1.5-3,2.5-1.5c-.73-2.2-.23-3.03,1.5-2.5l5-6ZM878,380l-1,4v16l2,1h19v-21h-20Z"/>
  <path class="st0" d="M479,413h11.5l.5.5v36l2,2v16.5l3,1.5v2.5l2,.5v14.5h4v8l3,.5v19.5l-3,1.5v2.5c-1.8-.73-2.47-.23-2,1.5l-4,1.5v17.5l1.5,1.5h5.5v-3h4v-1.5l1-3.5c2.53,1,3.53.5,3-1.5l2.5-3.5,3.5,1c-.67,4.6-.33,7.93,1,10l3,1.5v5.5h2.5c1.67.8,2.17,2.47,1.5,5h4v-3h4v-1.5l1-1v-8.5l2-.5v-9.5h8v3c3.47-1.4,4.8-.57,4,2.5l3,2-.5,1.5c2.53-.67,3.37,0,2.5,2h3v3h4.5l1.5-1.5v-7.5l-2-.5v-13.5h-3v-4h-2c1.13-3.47.47-4.8-2-4v-6l-4-.5v-16.5l2-.5v-12l5-2-1-2,1-1v-11.5h3v-10h3c-1.27-3.73-.27-5.07,3-4v-7.5l3-.5v-4h14l-1,9h-3v7.5l-1.5.5c-2.6,2.53-3.43,6.53-2.5,12h-4v8.5l-1,1v6.5c-4.27-1.53-5.6.3-4,5.5l-1,1v18l3,1.5v4h3v5.5l1.5.5c1.67.8,2.17,2.47,1.5,5l2,.5v30.5c-3-1-4,0-3,3h-3.5l-1.5,3h-15v-4h-3c1.13-2.73.3-3.73-2.5-3l-3,4c-2-.53-2.5.47-1.5,3h-3v2.5l-1,2.5c-2.73-1.13-3.73-.3-3,2.5l-1.5,1.5h-12.5c1.13-2.73.3-3.73-2.5-3l-2.5-6c-2.73,1.13-3.73.3-3-2.5l-1-3.5h-3.5c.53,2.2-.97,2.87-4.5,2v2.5l-1.5,1.5h-9l-1.5-3-4-1c.73-1.8.23-2.47-1.5-2l-1.5-1.5v-6.5l-2-.5v-7l-1-4c1.67-1,2-3.33,1-7-1.47-.8-1.3-1.63.5-2.5h1.5v-5.5l1.5-.5,3.5-1v-16.5l-2-1v-6.5h-2.5l-1.5-1.5v-9.5l-3-1.5v-6.5h-2.5l-1.5-1.5v-40l-1-5,3-1.5v-9Z"/>
</svg>